<mxfile host="65bd71144e">
    <diagram id="EhOWiQjwKC5yU7iMH9eh" name="Page-1">
        <mxGraphModel dx="2369" dy="2226" grid="1" gridSize="10" guides="1" tooltips="1" connect="1" arrows="1" fold="1" page="1" pageScale="1" pageWidth="1100" pageHeight="850" math="0" shadow="0">
            <root>
                <mxCell id="0"/>
                <mxCell id="1" parent="0"/>
                <mxCell id="305" value="IAction" style="swimlane;fontStyle=1;align=center;verticalAlign=middle;childLayout=stackLayout;horizontal=1;startSize=29;horizontalStack=0;resizeParent=1;resizeParentMax=0;resizeLast=0;collapsible=0;marginBottom=0;html=1;" parent="1" vertex="1">
                    <mxGeometry x="10" y="120" width="210" height="179" as="geometry"/>
                </mxCell>
                <mxCell id="306" value="&amp;lt;&amp;lt;interface&amp;gt;&amp;gt;" style="text;html=1;strokeColor=none;fillColor=none;align=center;verticalAlign=middle;spacingLeft=4;spacingRight=4;overflow=hidden;rotatable=0;points=[[0,0.5],[1,0.5]];portConstraint=eastwest;" parent="305" vertex="1">
                    <mxGeometry y="29" width="210" height="25" as="geometry"/>
                </mxCell>
                <mxCell id="307" value="- tag: String" style="text;html=1;strokeColor=none;fillColor=none;align=left;verticalAlign=middle;spacingLeft=4;spacingRight=4;overflow=hidden;rotatable=0;points=[[0,0.5],[1,0.5]];portConstraint=eastwest;" parent="305" vertex="1">
                    <mxGeometry y="54" width="210" height="25" as="geometry"/>
                </mxCell>
                <mxCell id="495" value="+ service: IService" style="text;html=1;strokeColor=none;fillColor=none;align=left;verticalAlign=middle;spacingLeft=4;spacingRight=4;overflow=hidden;rotatable=0;points=[[0,0.5],[1,0.5]];portConstraint=eastwest;" parent="305" vertex="1">
                    <mxGeometry y="79" width="210" height="25" as="geometry"/>
                </mxCell>
                <mxCell id="308" value="+ GetAccsesTag(): String" style="text;html=1;strokeColor=none;fillColor=none;align=left;verticalAlign=middle;spacingLeft=4;spacingRight=4;overflow=hidden;rotatable=0;points=[[0,0.5],[1,0.5]];portConstraint=eastwest;" parent="305" vertex="1">
                    <mxGeometry y="104" width="210" height="25" as="geometry"/>
                </mxCell>
                <mxCell id="309" value="+ Run(req: Object, res: Object): void" style="text;html=1;strokeColor=none;fillColor=none;align=left;verticalAlign=middle;spacingLeft=4;spacingRight=4;overflow=hidden;rotatable=0;points=[[0,0.5],[1,0.5]];portConstraint=eastwest;" parent="305" vertex="1">
                    <mxGeometry y="129" width="210" height="25" as="geometry"/>
                </mxCell>
                <mxCell id="310" value="+ Validate(input: Object): Object" style="text;html=1;strokeColor=none;fillColor=none;align=left;verticalAlign=middle;spacingLeft=4;spacingRight=4;overflow=hidden;rotatable=0;points=[[0,0.5],[1,0.5]];portConstraint=eastwest;" parent="305" vertex="1">
                    <mxGeometry y="154" width="210" height="25" as="geometry"/>
                </mxCell>
                <mxCell id="321" style="edgeStyle=elbowEdgeStyle;html=1;endArrow=block;endFill=1;" parent="1" source="311" target="305" edge="1">
                    <mxGeometry relative="1" as="geometry">
                        <Array as="points">
                            <mxPoint x="260" y="210"/>
                            <mxPoint x="270" y="209"/>
                            <mxPoint x="260" y="150"/>
                        </Array>
                    </mxGeometry>
                </mxCell>
                <mxCell id="484" style="edgeStyle=elbowEdgeStyle;html=1;endArrow=diamondThin;endFill=1;" parent="1" source="311" target="434" edge="1">
                    <mxGeometry relative="1" as="geometry"/>
                </mxCell>
                <mxCell id="311" value="LoginAction" style="swimlane;fontStyle=1;align=center;verticalAlign=middle;childLayout=stackLayout;horizontal=1;startSize=29;horizontalStack=0;resizeParent=1;resizeParentMax=0;resizeLast=0;collapsible=0;marginBottom=0;html=1;" parent="1" vertex="1">
                    <mxGeometry x="300" y="100" width="120" height="54" as="geometry"/>
                </mxCell>
                <mxCell id="312" value="&amp;lt;&amp;lt;class&amp;gt;&amp;gt;" style="text;html=1;strokeColor=none;fillColor=none;align=center;verticalAlign=middle;spacingLeft=4;spacingRight=4;overflow=hidden;rotatable=0;points=[[0,0.5],[1,0.5]];portConstraint=eastwest;" parent="311" vertex="1">
                    <mxGeometry y="29" width="120" height="25" as="geometry"/>
                </mxCell>
                <mxCell id="320" style="edgeStyle=elbowEdgeStyle;html=1;endArrow=block;endFill=1;" parent="1" source="318" target="305" edge="1">
                    <mxGeometry relative="1" as="geometry"/>
                </mxCell>
                <mxCell id="485" style="edgeStyle=elbowEdgeStyle;html=1;endArrow=diamondThin;endFill=1;" parent="1" source="318" target="434" edge="1">
                    <mxGeometry relative="1" as="geometry"/>
                </mxCell>
                <mxCell id="318" value="RegistrationAction" style="swimlane;fontStyle=1;align=center;verticalAlign=middle;childLayout=stackLayout;horizontal=1;startSize=29;horizontalStack=0;resizeParent=1;resizeParentMax=0;resizeLast=0;collapsible=0;marginBottom=0;html=1;" parent="1" vertex="1">
                    <mxGeometry x="300" y="164" width="120" height="54" as="geometry"/>
                </mxCell>
                <mxCell id="319" value="&amp;lt;&amp;lt;class&amp;gt;&amp;gt;" style="text;html=1;strokeColor=none;fillColor=none;align=center;verticalAlign=middle;spacingLeft=4;spacingRight=4;overflow=hidden;rotatable=0;points=[[0,0.5],[1,0.5]];portConstraint=eastwest;" parent="318" vertex="1">
                    <mxGeometry y="29" width="120" height="25" as="geometry"/>
                </mxCell>
                <mxCell id="324" style="edgeStyle=elbowEdgeStyle;html=1;endArrow=block;endFill=1;" parent="1" source="322" target="305" edge="1">
                    <mxGeometry relative="1" as="geometry"/>
                </mxCell>
                <mxCell id="488" style="edgeStyle=elbowEdgeStyle;html=1;endArrow=diamondThin;endFill=1;" parent="1" source="322" target="431" edge="1">
                    <mxGeometry relative="1" as="geometry"/>
                </mxCell>
                <mxCell id="322" value="GetAllRecordsAction" style="swimlane;fontStyle=1;align=center;verticalAlign=middle;childLayout=stackLayout;horizontal=1;startSize=29;horizontalStack=0;resizeParent=1;resizeParentMax=0;resizeLast=0;collapsible=0;marginBottom=0;html=1;" parent="1" vertex="1">
                    <mxGeometry x="300" y="670" width="140" height="54" as="geometry"/>
                </mxCell>
                <mxCell id="323" value="&amp;lt;&amp;lt;class&amp;gt;&amp;gt;" style="text;html=1;strokeColor=none;fillColor=none;align=center;verticalAlign=middle;spacingLeft=4;spacingRight=4;overflow=hidden;rotatable=0;points=[[0,0.5],[1,0.5]];portConstraint=eastwest;" parent="322" vertex="1">
                    <mxGeometry y="29" width="140" height="25" as="geometry"/>
                </mxCell>
                <mxCell id="331" style="edgeStyle=elbowEdgeStyle;html=1;endArrow=block;endFill=1;" parent="1" source="329" target="305" edge="1">
                    <mxGeometry relative="1" as="geometry"/>
                </mxCell>
                <mxCell id="491" style="edgeStyle=elbowEdgeStyle;html=1;endArrow=diamondThin;endFill=1;" parent="1" source="329" target="431" edge="1">
                    <mxGeometry relative="1" as="geometry"/>
                </mxCell>
                <mxCell id="329" value="GetRecordAction" style="swimlane;fontStyle=1;align=center;verticalAlign=middle;childLayout=stackLayout;horizontal=1;startSize=29;horizontalStack=0;resizeParent=1;resizeParentMax=0;resizeLast=0;collapsible=0;marginBottom=0;html=1;" parent="1" vertex="1">
                    <mxGeometry x="300" y="810" width="140" height="54" as="geometry"/>
                </mxCell>
                <mxCell id="330" value="&amp;lt;&amp;lt;class&amp;gt;&amp;gt;" style="text;html=1;strokeColor=none;fillColor=none;align=center;verticalAlign=middle;spacingLeft=4;spacingRight=4;overflow=hidden;rotatable=0;points=[[0,0.5],[1,0.5]];portConstraint=eastwest;" parent="329" vertex="1">
                    <mxGeometry y="29" width="140" height="25" as="geometry"/>
                </mxCell>
                <mxCell id="335" style="edgeStyle=elbowEdgeStyle;html=1;endArrow=block;endFill=1;" parent="1" source="332" target="305" edge="1">
                    <mxGeometry relative="1" as="geometry">
                        <Array as="points">
                            <mxPoint x="260" y="430"/>
                        </Array>
                    </mxGeometry>
                </mxCell>
                <mxCell id="332" value="UpdateRecordAction" style="swimlane;fontStyle=1;align=center;verticalAlign=middle;childLayout=stackLayout;horizontal=1;startSize=29;horizontalStack=0;resizeParent=1;resizeParentMax=0;resizeLast=0;collapsible=0;marginBottom=0;html=1;" parent="1" vertex="1">
                    <mxGeometry x="300" y="740" width="140" height="54" as="geometry"/>
                </mxCell>
                <mxCell id="333" value="&amp;lt;&amp;lt;class&amp;gt;&amp;gt;" style="text;html=1;strokeColor=none;fillColor=none;align=center;verticalAlign=middle;spacingLeft=4;spacingRight=4;overflow=hidden;rotatable=0;points=[[0,0.5],[1,0.5]];portConstraint=eastwest;" parent="332" vertex="1">
                    <mxGeometry y="29" width="140" height="25" as="geometry"/>
                </mxCell>
                <mxCell id="341" style="edgeStyle=elbowEdgeStyle;html=1;endArrow=block;endFill=1;" parent="1" source="336" target="305" edge="1">
                    <mxGeometry relative="1" as="geometry"/>
                </mxCell>
                <mxCell id="486" style="edgeStyle=elbowEdgeStyle;html=1;endArrow=diamondThin;endFill=1;" parent="1" source="336" target="431" edge="1">
                    <mxGeometry relative="1" as="geometry"/>
                </mxCell>
                <mxCell id="336" value="CreateRecordAction" style="swimlane;fontStyle=1;align=center;verticalAlign=middle;childLayout=stackLayout;horizontal=1;startSize=29;horizontalStack=0;resizeParent=1;resizeParentMax=0;resizeLast=0;collapsible=0;marginBottom=0;html=1;" parent="1" vertex="1">
                    <mxGeometry x="300" y="529.5" width="140" height="54" as="geometry"/>
                </mxCell>
                <mxCell id="337" value="&amp;lt;&amp;lt;class&amp;gt;&amp;gt;" style="text;html=1;strokeColor=none;fillColor=none;align=center;verticalAlign=middle;spacingLeft=4;spacingRight=4;overflow=hidden;rotatable=0;points=[[0,0.5],[1,0.5]];portConstraint=eastwest;" parent="336" vertex="1">
                    <mxGeometry y="29" width="140" height="25" as="geometry"/>
                </mxCell>
                <mxCell id="340" style="edgeStyle=elbowEdgeStyle;html=1;endArrow=block;endFill=1;" parent="1" source="338" target="305" edge="1">
                    <mxGeometry relative="1" as="geometry"/>
                </mxCell>
                <mxCell id="487" style="edgeStyle=elbowEdgeStyle;html=1;endArrow=diamondThin;endFill=1;" parent="1" source="338" target="431" edge="1">
                    <mxGeometry relative="1" as="geometry"/>
                </mxCell>
                <mxCell id="338" value="DeleteRecordAction" style="swimlane;fontStyle=1;align=center;verticalAlign=middle;childLayout=stackLayout;horizontal=1;startSize=29;horizontalStack=0;resizeParent=1;resizeParentMax=0;resizeLast=0;collapsible=0;marginBottom=0;html=1;" parent="1" vertex="1">
                    <mxGeometry x="300" y="599" width="140" height="54" as="geometry"/>
                </mxCell>
                <mxCell id="339" value="&amp;lt;&amp;lt;class&amp;gt;&amp;gt;" style="text;html=1;strokeColor=none;fillColor=none;align=center;verticalAlign=middle;spacingLeft=4;spacingRight=4;overflow=hidden;rotatable=0;points=[[0,0.5],[1,0.5]];portConstraint=eastwest;" parent="338" vertex="1">
                    <mxGeometry y="29" width="140" height="25" as="geometry"/>
                </mxCell>
                <mxCell id="494" style="edgeStyle=elbowEdgeStyle;html=1;endArrow=diamondThin;endFill=1;exitX=1;exitY=0.5;exitDx=0;exitDy=0;" parent="1" edge="1">
                    <mxGeometry relative="1" as="geometry">
                        <Array as="points">
                            <mxPoint x="500" y="90"/>
                            <mxPoint x="500" y="60"/>
                            <mxPoint x="470" y="70"/>
                            <mxPoint x="520" y="90"/>
                            <mxPoint x="480" y="90"/>
                            <mxPoint x="470" y="60"/>
                            <mxPoint x="580" y="10"/>
                        </Array>
                        <mxPoint x="450" y="21.5" as="sourcePoint"/>
                        <mxPoint x="500" y="100" as="targetPoint"/>
                    </mxGeometry>
                </mxCell>
                <mxCell id="349" value="User" style="swimlane;fontStyle=1;align=center;verticalAlign=middle;childLayout=stackLayout;horizontal=1;startSize=29;horizontalStack=0;resizeParent=1;resizeParentMax=0;resizeLast=0;collapsible=0;marginBottom=0;html=1;" parent="1" vertex="1">
                    <mxGeometry x="310" y="-47.5" width="140" height="129" as="geometry"/>
                </mxCell>
                <mxCell id="350" value="&amp;lt;&amp;lt;class&amp;gt;&amp;gt;" style="text;html=1;strokeColor=none;fillColor=none;align=center;verticalAlign=middle;spacingLeft=4;spacingRight=4;overflow=hidden;rotatable=0;points=[[0,0.5],[1,0.5]];portConstraint=eastwest;" parent="349" vertex="1">
                    <mxGeometry y="29" width="140" height="25" as="geometry"/>
                </mxCell>
                <mxCell id="372" value="+ email: String" style="text;html=1;strokeColor=none;fillColor=none;align=left;verticalAlign=middle;spacingLeft=4;spacingRight=4;overflow=hidden;rotatable=0;points=[[0,0.5],[1,0.5]];portConstraint=eastwest;" parent="349" vertex="1">
                    <mxGeometry y="54" width="140" height="25" as="geometry"/>
                </mxCell>
                <mxCell id="373" value="+ name: String" style="text;html=1;strokeColor=none;fillColor=none;align=left;verticalAlign=middle;spacingLeft=4;spacingRight=4;overflow=hidden;rotatable=0;points=[[0,0.5],[1,0.5]];portConstraint=eastwest;" parent="349" vertex="1">
                    <mxGeometry y="79" width="140" height="25" as="geometry"/>
                </mxCell>
                <mxCell id="374" value="+ password: String" style="text;html=1;strokeColor=none;fillColor=none;align=left;verticalAlign=middle;spacingLeft=4;spacingRight=4;overflow=hidden;rotatable=0;points=[[0,0.5],[1,0.5]];portConstraint=eastwest;" parent="349" vertex="1">
                    <mxGeometry y="104" width="140" height="25" as="geometry"/>
                </mxCell>
                <mxCell id="499" style="edgeStyle=elbowEdgeStyle;html=1;endArrow=diamondThin;endFill=1;entryX=0.92;entryY=0.003;entryDx=0;entryDy=0;entryPerimeter=0;" parent="1" source="355" target="431" edge="1">
                    <mxGeometry relative="1" as="geometry">
                        <Array as="points">
                            <mxPoint x="720" y="330"/>
                            <mxPoint x="690" y="280"/>
                            <mxPoint x="680" y="140"/>
                            <mxPoint x="680" y="320"/>
                            <mxPoint x="687" y="190"/>
                            <mxPoint x="690" y="-20"/>
                            <mxPoint x="620" y="-10"/>
                        </Array>
                        <mxPoint x="690" y="340" as="targetPoint"/>
                    </mxGeometry>
                </mxCell>
                <mxCell id="620" style="edgeStyle=elbowEdgeStyle;html=1;endArrow=classic;endFill=1;" edge="1" parent="1" source="355" target="613">
                    <mxGeometry relative="1" as="geometry">
                        <Array as="points">
                            <mxPoint x="660" y="-400"/>
                        </Array>
                    </mxGeometry>
                </mxCell>
                <mxCell id="355" value="Record" style="swimlane;fontStyle=1;align=center;verticalAlign=middle;childLayout=stackLayout;horizontal=1;startSize=29;horizontalStack=0;resizeParent=1;resizeParentMax=0;resizeLast=0;collapsible=0;marginBottom=0;html=1;" parent="1" vertex="1">
                    <mxGeometry x="510" y="-161" width="150" height="254" as="geometry"/>
                </mxCell>
                <mxCell id="356" value="&amp;lt;&amp;lt;class&amp;gt;&amp;gt;" style="text;html=1;strokeColor=none;fillColor=none;align=center;verticalAlign=middle;spacingLeft=4;spacingRight=4;overflow=hidden;rotatable=0;points=[[0,0.5],[1,0.5]];portConstraint=eastwest;" parent="355" vertex="1">
                    <mxGeometry y="29" width="150" height="25" as="geometry"/>
                </mxCell>
                <mxCell id="385" value="+ owner_id: String" style="text;html=1;strokeColor=none;fillColor=none;align=left;verticalAlign=middle;spacingLeft=4;spacingRight=4;overflow=hidden;rotatable=0;points=[[0,0.5],[1,0.5]];portConstraint=eastwest;" parent="355" vertex="1">
                    <mxGeometry y="54" width="150" height="25" as="geometry"/>
                </mxCell>
                <mxCell id="386" value="+ projects_id: String" style="text;html=1;strokeColor=none;fillColor=none;align=left;verticalAlign=middle;spacingLeft=4;spacingRight=4;overflow=hidden;rotatable=0;points=[[0,0.5],[1,0.5]];portConstraint=eastwest;" parent="355" vertex="1">
                    <mxGeometry y="79" width="150" height="25" as="geometry"/>
                </mxCell>
                <mxCell id="387" value="+ money_account: String" style="text;html=1;strokeColor=none;fillColor=none;align=left;verticalAlign=middle;spacingLeft=4;spacingRight=4;overflow=hidden;rotatable=0;points=[[0,0.5],[1,0.5]];portConstraint=eastwest;" parent="355" vertex="1">
                    <mxGeometry y="104" width="150" height="25" as="geometry"/>
                </mxCell>
                <mxCell id="517" value="+ comment: String" style="text;html=1;strokeColor=none;fillColor=none;align=left;verticalAlign=middle;spacingLeft=4;spacingRight=4;overflow=hidden;rotatable=0;points=[[0,0.5],[1,0.5]];portConstraint=eastwest;" parent="355" vertex="1">
                    <mxGeometry y="129" width="150" height="25" as="geometry"/>
                </mxCell>
                <mxCell id="518" value="+ source_from: String" style="text;html=1;strokeColor=none;fillColor=none;align=left;verticalAlign=middle;spacingLeft=4;spacingRight=4;overflow=hidden;rotatable=0;points=[[0,0.5],[1,0.5]];portConstraint=eastwest;" parent="355" vertex="1">
                    <mxGeometry y="154" width="150" height="25" as="geometry"/>
                </mxCell>
                <mxCell id="519" value="+ date: Date" style="text;html=1;strokeColor=none;fillColor=none;align=left;verticalAlign=middle;spacingLeft=4;spacingRight=4;overflow=hidden;rotatable=0;points=[[0,0.5],[1,0.5]];portConstraint=eastwest;" parent="355" vertex="1">
                    <mxGeometry y="179" width="150" height="25" as="geometry"/>
                </mxCell>
                <mxCell id="571" value="+ income: Income [ ]&amp;nbsp;" style="text;html=1;strokeColor=none;fillColor=none;align=left;verticalAlign=middle;spacingLeft=4;spacingRight=4;overflow=hidden;rotatable=0;points=[[0,0.5],[1,0.5]];portConstraint=eastwest;" vertex="1" parent="355">
                    <mxGeometry y="204" width="150" height="25" as="geometry"/>
                </mxCell>
                <mxCell id="572" value="+ costs: Cost [ ]&amp;nbsp;" style="text;html=1;strokeColor=none;fillColor=none;align=left;verticalAlign=middle;spacingLeft=4;spacingRight=4;overflow=hidden;rotatable=0;points=[[0,0.5],[1,0.5]];portConstraint=eastwest;" vertex="1" parent="355">
                    <mxGeometry y="229" width="150" height="25" as="geometry"/>
                </mxCell>
                <mxCell id="415" value="IService" style="swimlane;fontStyle=1;align=center;verticalAlign=middle;childLayout=stackLayout;horizontal=1;startSize=29;horizontalStack=0;resizeParent=1;resizeParentMax=0;resizeLast=0;collapsible=0;marginBottom=0;html=1;" parent="1" vertex="1">
                    <mxGeometry x="730" y="-280" width="210" height="79" as="geometry"/>
                </mxCell>
                <mxCell id="416" value="&amp;lt;&amp;lt;interface&amp;gt;&amp;gt;" style="text;html=1;strokeColor=none;fillColor=none;align=center;verticalAlign=middle;spacingLeft=4;spacingRight=4;overflow=hidden;rotatable=0;points=[[0,0.5],[1,0.5]];portConstraint=eastwest;" parent="415" vertex="1">
                    <mxGeometry y="29" width="210" height="25" as="geometry"/>
                </mxCell>
                <mxCell id="417" value="+ repository: IRepository" style="text;html=1;strokeColor=none;fillColor=none;align=left;verticalAlign=middle;spacingLeft=4;spacingRight=4;overflow=hidden;rotatable=0;points=[[0,0.5],[1,0.5]];portConstraint=eastwest;" parent="415" vertex="1">
                    <mxGeometry y="54" width="210" height="25" as="geometry"/>
                </mxCell>
                <mxCell id="430" style="edgeStyle=elbowEdgeStyle;html=1;endArrow=block;endFill=1;exitX=1;exitY=0.073;exitDx=0;exitDy=0;exitPerimeter=0;" parent="1" source="431" target="415" edge="1">
                    <mxGeometry relative="1" as="geometry">
                        <Array as="points">
                            <mxPoint x="760" y="480"/>
                            <mxPoint x="750" y="-60"/>
                            <mxPoint x="850" y="130"/>
                            <mxPoint x="760" y="130"/>
                            <mxPoint x="750" y="290"/>
                        </Array>
                    </mxGeometry>
                </mxCell>
                <mxCell id="431" value="RecordService" style="swimlane;fontStyle=1;align=center;verticalAlign=middle;childLayout=stackLayout;horizontal=1;startSize=29;horizontalStack=0;resizeParent=1;resizeParentMax=0;resizeLast=0;collapsible=0;marginBottom=0;html=1;" parent="1" vertex="1">
                    <mxGeometry x="500" y="467" width="240" height="179" as="geometry"/>
                </mxCell>
                <mxCell id="432" value="&amp;lt;&amp;lt;class&amp;gt;&amp;gt;" style="text;html=1;strokeColor=none;fillColor=none;align=center;verticalAlign=middle;spacingLeft=4;spacingRight=4;overflow=hidden;rotatable=0;points=[[0,0.5],[1,0.5]];portConstraint=eastwest;" parent="431" vertex="1">
                    <mxGeometry y="29" width="240" height="25" as="geometry"/>
                </mxCell>
                <mxCell id="447" value="+ create(record: Record): Record" style="text;html=1;strokeColor=none;fillColor=none;align=left;verticalAlign=middle;spacingLeft=4;spacingRight=4;overflow=hidden;rotatable=0;points=[[0,0.5],[1,0.5]];portConstraint=eastwest;" parent="431" vertex="1">
                    <mxGeometry y="54" width="240" height="25" as="geometry"/>
                </mxCell>
                <mxCell id="448" value="+ update(record: Record): Record" style="text;html=1;strokeColor=none;fillColor=none;align=left;verticalAlign=middle;spacingLeft=4;spacingRight=4;overflow=hidden;rotatable=0;points=[[0,0.5],[1,0.5]];portConstraint=eastwest;" parent="431" vertex="1">
                    <mxGeometry y="79" width="240" height="25" as="geometry"/>
                </mxCell>
                <mxCell id="524" value="+ getAll(id: Number, role: String): Record[ ]" style="text;html=1;strokeColor=none;fillColor=none;align=left;verticalAlign=middle;spacingLeft=4;spacingRight=4;overflow=hidden;rotatable=0;points=[[0,0.5],[1,0.5]];portConstraint=eastwest;" parent="431" vertex="1">
                    <mxGeometry y="104" width="240" height="25" as="geometry"/>
                </mxCell>
                <mxCell id="525" value="+ deleteById(id: Number): void" style="text;html=1;strokeColor=none;fillColor=none;align=left;verticalAlign=middle;spacingLeft=4;spacingRight=4;overflow=hidden;rotatable=0;points=[[0,0.5],[1,0.5]];portConstraint=eastwest;" parent="431" vertex="1">
                    <mxGeometry y="129" width="240" height="25" as="geometry"/>
                </mxCell>
                <mxCell id="526" value="+ getById(id: Number): Record" style="text;html=1;strokeColor=none;fillColor=none;align=left;verticalAlign=middle;spacingLeft=4;spacingRight=4;overflow=hidden;rotatable=0;points=[[0,0.5],[1,0.5]];portConstraint=eastwest;" parent="431" vertex="1">
                    <mxGeometry y="154" width="240" height="25" as="geometry"/>
                </mxCell>
                <mxCell id="433" style="edgeStyle=elbowEdgeStyle;html=1;endArrow=block;endFill=1;" parent="1" source="434" target="415" edge="1">
                    <mxGeometry relative="1" as="geometry">
                        <Array as="points">
                            <mxPoint x="760" y="-120"/>
                            <mxPoint x="750" y="-100"/>
                            <mxPoint x="850" y="110"/>
                            <mxPoint x="760" y="100"/>
                            <mxPoint x="700" y="120"/>
                            <mxPoint x="750" y="110"/>
                            <mxPoint x="710" y="130"/>
                            <mxPoint x="760" y="90"/>
                        </Array>
                    </mxGeometry>
                </mxCell>
                <mxCell id="434" value="UserService" style="swimlane;fontStyle=1;align=center;verticalAlign=middle;childLayout=stackLayout;horizontal=1;startSize=29;horizontalStack=0;resizeParent=1;resizeParentMax=0;resizeLast=0;collapsible=0;marginBottom=0;html=1;" parent="1" vertex="1">
                    <mxGeometry x="490" y="106" width="180" height="204" as="geometry"/>
                </mxCell>
                <mxCell id="435" value="&amp;lt;&amp;lt;class&amp;gt;&amp;gt;" style="text;html=1;strokeColor=none;fillColor=none;align=center;verticalAlign=middle;spacingLeft=4;spacingRight=4;overflow=hidden;rotatable=0;points=[[0,0.5],[1,0.5]];portConstraint=eastwest;" parent="434" vertex="1">
                    <mxGeometry y="29" width="180" height="25" as="geometry"/>
                </mxCell>
                <mxCell id="445" value="+ registration(user: User): User" style="text;html=1;strokeColor=none;fillColor=none;align=left;verticalAlign=middle;spacingLeft=4;spacingRight=4;overflow=hidden;rotatable=0;points=[[0,0.5],[1,0.5]];portConstraint=eastwest;" parent="434" vertex="1">
                    <mxGeometry y="54" width="180" height="25" as="geometry"/>
                </mxCell>
                <mxCell id="446" value="+ login(user: User): User" style="text;html=1;strokeColor=none;fillColor=none;align=left;verticalAlign=middle;spacingLeft=4;spacingRight=4;overflow=hidden;rotatable=0;points=[[0,0.5],[1,0.5]];portConstraint=eastwest;" parent="434" vertex="1">
                    <mxGeometry y="79" width="180" height="25" as="geometry"/>
                </mxCell>
                <mxCell id="520" value="+ getAll(): User [ ]" style="text;html=1;strokeColor=none;fillColor=none;align=left;verticalAlign=middle;spacingLeft=4;spacingRight=4;overflow=hidden;rotatable=0;points=[[0,0.5],[1,0.5]];portConstraint=eastwest;" parent="434" vertex="1">
                    <mxGeometry y="104" width="180" height="25" as="geometry"/>
                </mxCell>
                <mxCell id="521" value="+ update(user: User): User" style="text;html=1;strokeColor=none;fillColor=none;align=left;verticalAlign=middle;spacingLeft=4;spacingRight=4;overflow=hidden;rotatable=0;points=[[0,0.5],[1,0.5]];portConstraint=eastwest;" parent="434" vertex="1">
                    <mxGeometry y="129" width="180" height="25" as="geometry"/>
                </mxCell>
                <mxCell id="522" value="+ deleteById(id: Number): void" style="text;html=1;strokeColor=none;fillColor=none;align=left;verticalAlign=middle;spacingLeft=4;spacingRight=4;overflow=hidden;rotatable=0;points=[[0,0.5],[1,0.5]];portConstraint=eastwest;" parent="434" vertex="1">
                    <mxGeometry y="154" width="180" height="25" as="geometry"/>
                </mxCell>
                <mxCell id="523" value="+ getById(id: Number): User" style="text;html=1;strokeColor=none;fillColor=none;align=left;verticalAlign=middle;spacingLeft=4;spacingRight=4;overflow=hidden;rotatable=0;points=[[0,0.5],[1,0.5]];portConstraint=eastwest;" parent="434" vertex="1">
                    <mxGeometry y="179" width="180" height="25" as="geometry"/>
                </mxCell>
                <mxCell id="453" value="IRepository" style="swimlane;fontStyle=1;align=center;verticalAlign=middle;childLayout=stackLayout;horizontal=1;startSize=29;horizontalStack=0;resizeParent=1;resizeParentMax=0;resizeLast=0;collapsible=0;marginBottom=0;html=1;" parent="1" vertex="1">
                    <mxGeometry x="970" y="-61" width="210" height="179" as="geometry"/>
                </mxCell>
                <mxCell id="454" value="&amp;lt;&amp;lt;interface&amp;gt;&amp;gt;" style="text;html=1;strokeColor=none;fillColor=none;align=center;verticalAlign=middle;spacingLeft=4;spacingRight=4;overflow=hidden;rotatable=0;points=[[0,0.5],[1,0.5]];portConstraint=eastwest;" parent="453" vertex="1">
                    <mxGeometry y="29" width="210" height="25" as="geometry"/>
                </mxCell>
                <mxCell id="455" value="+ insert(data: IEnity): Object" style="text;html=1;strokeColor=none;fillColor=none;align=left;verticalAlign=middle;spacingLeft=4;spacingRight=4;overflow=hidden;rotatable=0;points=[[0,0.5],[1,0.5]];portConstraint=eastwest;" parent="453" vertex="1">
                    <mxGeometry y="54" width="210" height="25" as="geometry"/>
                </mxCell>
                <mxCell id="473" value="+ update(data: IEntity): Object" style="text;html=1;strokeColor=none;fillColor=none;align=left;verticalAlign=middle;spacingLeft=4;spacingRight=4;overflow=hidden;rotatable=0;points=[[0,0.5],[1,0.5]];portConstraint=eastwest;" parent="453" vertex="1">
                    <mxGeometry y="79" width="210" height="25" as="geometry"/>
                </mxCell>
                <mxCell id="474" value="+ getById(id: Number): IEntity" style="text;html=1;strokeColor=none;fillColor=none;align=left;verticalAlign=middle;spacingLeft=4;spacingRight=4;overflow=hidden;rotatable=0;points=[[0,0.5],[1,0.5]];portConstraint=eastwest;" parent="453" vertex="1">
                    <mxGeometry y="104" width="210" height="25" as="geometry"/>
                </mxCell>
                <mxCell id="475" value="+ getAll(): IEntity [ ]" style="text;html=1;strokeColor=none;fillColor=none;align=left;verticalAlign=middle;spacingLeft=4;spacingRight=4;overflow=hidden;rotatable=0;points=[[0,0.5],[1,0.5]];portConstraint=eastwest;" parent="453" vertex="1">
                    <mxGeometry y="129" width="210" height="25" as="geometry"/>
                </mxCell>
                <mxCell id="622" value="+ delete(id: Number): Boolean" style="text;html=1;strokeColor=none;fillColor=none;align=left;verticalAlign=middle;spacingLeft=4;spacingRight=4;overflow=hidden;rotatable=0;points=[[0,0.5],[1,0.5]];portConstraint=eastwest;" vertex="1" parent="453">
                    <mxGeometry y="154" width="210" height="25" as="geometry"/>
                </mxCell>
                <mxCell id="456" style="edgeStyle=elbowEdgeStyle;html=1;endArrow=block;endFill=1;" parent="1" source="457" target="453" edge="1">
                    <mxGeometry relative="1" as="geometry">
                        <Array as="points">
                            <mxPoint x="1100" y="160"/>
                            <mxPoint x="1050" y="200"/>
                            <mxPoint x="1130" y="250"/>
                        </Array>
                    </mxGeometry>
                </mxCell>
                <mxCell id="631" style="edgeStyle=elbowEdgeStyle;html=1;endArrow=diamondThin;endFill=1;" edge="1" parent="1" source="457" target="431">
                    <mxGeometry relative="1" as="geometry"/>
                </mxCell>
                <mxCell id="457" value="RecordRepository" style="swimlane;fontStyle=1;align=center;verticalAlign=middle;childLayout=stackLayout;horizontal=1;startSize=29;horizontalStack=0;resizeParent=1;resizeParentMax=0;resizeLast=0;collapsible=0;marginBottom=0;html=1;" parent="1" vertex="1">
                    <mxGeometry x="810" y="380" width="220" height="54" as="geometry"/>
                </mxCell>
                <mxCell id="458" value="&amp;lt;&amp;lt;class&amp;gt;&amp;gt;" style="text;html=1;strokeColor=none;fillColor=none;align=center;verticalAlign=middle;spacingLeft=4;spacingRight=4;overflow=hidden;rotatable=0;points=[[0,0.5],[1,0.5]];portConstraint=eastwest;" parent="457" vertex="1">
                    <mxGeometry y="29" width="220" height="25" as="geometry"/>
                </mxCell>
                <mxCell id="461" style="edgeStyle=elbowEdgeStyle;html=1;endArrow=block;endFill=1;" parent="1" source="462" target="453" edge="1">
                    <mxGeometry relative="1" as="geometry">
                        <Array as="points">
                            <mxPoint x="1100" y="160"/>
                            <mxPoint x="1160" y="130"/>
                            <mxPoint x="1150" y="130"/>
                            <mxPoint x="1050" y="160"/>
                        </Array>
                    </mxGeometry>
                </mxCell>
                <mxCell id="632" style="edgeStyle=elbowEdgeStyle;html=1;endArrow=diamondThin;endFill=1;" edge="1" parent="1" source="462" target="434">
                    <mxGeometry relative="1" as="geometry">
                        <Array as="points">
                            <mxPoint x="700" y="120"/>
                        </Array>
                    </mxGeometry>
                </mxCell>
                <mxCell id="462" value="UserRepository" style="swimlane;fontStyle=1;align=center;verticalAlign=middle;childLayout=stackLayout;horizontal=1;startSize=29;horizontalStack=0;resizeParent=1;resizeParentMax=0;resizeLast=0;collapsible=0;marginBottom=0;html=1;" parent="1" vertex="1">
                    <mxGeometry x="830" y="139" width="210" height="79" as="geometry"/>
                </mxCell>
                <mxCell id="463" value="&amp;lt;&amp;lt;class&amp;gt;&amp;gt;" style="text;html=1;strokeColor=none;fillColor=none;align=center;verticalAlign=middle;spacingLeft=4;spacingRight=4;overflow=hidden;rotatable=0;points=[[0,0.5],[1,0.5]];portConstraint=eastwest;" parent="462" vertex="1">
                    <mxGeometry y="29" width="210" height="25" as="geometry"/>
                </mxCell>
                <mxCell id="464" value="+ findByEmail(email: String): User" style="text;html=1;strokeColor=none;fillColor=none;align=left;verticalAlign=middle;spacingLeft=4;spacingRight=4;overflow=hidden;rotatable=0;points=[[0,0.5],[1,0.5]];portConstraint=eastwest;" parent="462" vertex="1">
                    <mxGeometry y="54" width="210" height="25" as="geometry"/>
                </mxCell>
                <mxCell id="489" style="edgeStyle=elbowEdgeStyle;html=1;endArrow=diamondThin;endFill=1;" parent="1" source="333" target="431" edge="1">
                    <mxGeometry relative="1" as="geometry"/>
                </mxCell>
                <mxCell id="509" style="edgeStyle=elbowEdgeStyle;html=1;" parent="1" source="501" edge="1">
                    <mxGeometry relative="1" as="geometry">
                        <mxPoint x="220" y="210" as="targetPoint"/>
                    </mxGeometry>
                </mxCell>
                <mxCell id="513" style="edgeStyle=elbowEdgeStyle;html=1;endArrow=diamondThin;endFill=1;" parent="1" source="501" target="434" edge="1">
                    <mxGeometry relative="1" as="geometry"/>
                </mxCell>
                <mxCell id="501" value="GetUsersAction" style="swimlane;fontStyle=1;align=center;verticalAlign=middle;childLayout=stackLayout;horizontal=1;startSize=29;horizontalStack=0;resizeParent=1;resizeParentMax=0;resizeLast=0;collapsible=0;marginBottom=0;html=1;" parent="1" vertex="1">
                    <mxGeometry x="300" y="236" width="120" height="54" as="geometry"/>
                </mxCell>
                <mxCell id="502" value="&amp;lt;&amp;lt;class&amp;gt;&amp;gt;" style="text;html=1;strokeColor=none;fillColor=none;align=center;verticalAlign=middle;spacingLeft=4;spacingRight=4;overflow=hidden;rotatable=0;points=[[0,0.5],[1,0.5]];portConstraint=eastwest;" parent="501" vertex="1">
                    <mxGeometry y="29" width="120" height="25" as="geometry"/>
                </mxCell>
                <mxCell id="510" style="edgeStyle=elbowEdgeStyle;html=1;entryX=1;entryY=0.5;entryDx=0;entryDy=0;" parent="1" source="503" target="495" edge="1">
                    <mxGeometry relative="1" as="geometry"/>
                </mxCell>
                <mxCell id="514" style="edgeStyle=elbowEdgeStyle;html=1;endArrow=diamondThin;endFill=1;" parent="1" source="503" target="434" edge="1">
                    <mxGeometry relative="1" as="geometry">
                        <Array as="points">
                            <mxPoint x="455" y="208"/>
                        </Array>
                    </mxGeometry>
                </mxCell>
                <mxCell id="503" value="GeUserByIdAction" style="swimlane;fontStyle=1;align=center;verticalAlign=middle;childLayout=stackLayout;horizontal=1;startSize=29;horizontalStack=0;resizeParent=1;resizeParentMax=0;resizeLast=0;collapsible=0;marginBottom=0;html=1;" parent="1" vertex="1">
                    <mxGeometry x="300" y="301.5" width="120" height="54" as="geometry"/>
                </mxCell>
                <mxCell id="504" value="&amp;lt;&amp;lt;class&amp;gt;&amp;gt;" style="text;html=1;strokeColor=none;fillColor=none;align=center;verticalAlign=middle;spacingLeft=4;spacingRight=4;overflow=hidden;rotatable=0;points=[[0,0.5],[1,0.5]];portConstraint=eastwest;" parent="503" vertex="1">
                    <mxGeometry y="29" width="120" height="25" as="geometry"/>
                </mxCell>
                <mxCell id="511" style="edgeStyle=elbowEdgeStyle;html=1;" parent="1" source="505" edge="1">
                    <mxGeometry relative="1" as="geometry">
                        <mxPoint x="220" y="210" as="targetPoint"/>
                    </mxGeometry>
                </mxCell>
                <mxCell id="527" style="edgeStyle=elbowEdgeStyle;html=1;endArrow=diamondThin;endFill=1;" edge="1" parent="1" source="505" target="434">
                    <mxGeometry relative="1" as="geometry">
                        <Array as="points">
                            <mxPoint x="460" y="208"/>
                            <mxPoint x="460" y="300"/>
                        </Array>
                    </mxGeometry>
                </mxCell>
                <mxCell id="505" value="DeleteUserByIdAction" style="swimlane;fontStyle=1;align=center;verticalAlign=middle;childLayout=stackLayout;horizontal=1;startSize=29;horizontalStack=0;resizeParent=1;resizeParentMax=0;resizeLast=0;collapsible=0;marginBottom=0;html=1;" parent="1" vertex="1">
                    <mxGeometry x="300" y="371" width="140" height="54" as="geometry"/>
                </mxCell>
                <mxCell id="506" value="&amp;lt;&amp;lt;class&amp;gt;&amp;gt;" style="text;html=1;strokeColor=none;fillColor=none;align=center;verticalAlign=middle;spacingLeft=4;spacingRight=4;overflow=hidden;rotatable=0;points=[[0,0.5],[1,0.5]];portConstraint=eastwest;" parent="505" vertex="1">
                    <mxGeometry y="29" width="140" height="25" as="geometry"/>
                </mxCell>
                <mxCell id="512" style="edgeStyle=elbowEdgeStyle;html=1;" parent="1" source="507" edge="1">
                    <mxGeometry relative="1" as="geometry">
                        <mxPoint x="220" y="210" as="targetPoint"/>
                    </mxGeometry>
                </mxCell>
                <mxCell id="528" style="edgeStyle=elbowEdgeStyle;html=1;endArrow=diamondThin;endFill=1;" edge="1" parent="1" source="507" target="434">
                    <mxGeometry relative="1" as="geometry">
                        <Array as="points">
                            <mxPoint x="460" y="208"/>
                        </Array>
                    </mxGeometry>
                </mxCell>
                <mxCell id="507" value="UpdateUserAction" style="swimlane;fontStyle=1;align=center;verticalAlign=middle;childLayout=stackLayout;horizontal=1;startSize=29;horizontalStack=0;resizeParent=1;resizeParentMax=0;resizeLast=0;collapsible=0;marginBottom=0;html=1;" parent="1" vertex="1">
                    <mxGeometry x="300" y="440" width="140" height="54" as="geometry"/>
                </mxCell>
                <mxCell id="508" value="&amp;lt;&amp;lt;class&amp;gt;&amp;gt;" style="text;html=1;strokeColor=none;fillColor=none;align=center;verticalAlign=middle;spacingLeft=4;spacingRight=4;overflow=hidden;rotatable=0;points=[[0,0.5],[1,0.5]];portConstraint=eastwest;" parent="507" vertex="1">
                    <mxGeometry y="29" width="140" height="25" as="geometry"/>
                </mxCell>
                <mxCell id="567" style="edgeStyle=elbowEdgeStyle;html=1;endArrow=diamondThin;endFill=1;" edge="1" parent="1" source="529" target="549">
                    <mxGeometry relative="1" as="geometry"/>
                </mxCell>
                <mxCell id="529" value="GetAllWorkersAction" style="swimlane;fontStyle=1;align=center;verticalAlign=middle;childLayout=stackLayout;horizontal=1;startSize=29;horizontalStack=0;resizeParent=1;resizeParentMax=0;resizeLast=0;collapsible=0;marginBottom=0;html=1;" vertex="1" parent="1">
                    <mxGeometry x="300" y="1040.5" width="140" height="54" as="geometry"/>
                </mxCell>
                <mxCell id="530" value="&amp;lt;&amp;lt;class&amp;gt;&amp;gt;" style="text;html=1;strokeColor=none;fillColor=none;align=center;verticalAlign=middle;spacingLeft=4;spacingRight=4;overflow=hidden;rotatable=0;points=[[0,0.5],[1,0.5]];portConstraint=eastwest;" vertex="1" parent="529">
                    <mxGeometry y="29" width="140" height="25" as="geometry"/>
                </mxCell>
                <mxCell id="545" style="edgeStyle=elbowEdgeStyle;html=1;endArrow=classic;endFill=1;" edge="1" parent="1" source="531">
                    <mxGeometry relative="1" as="geometry">
                        <mxPoint x="220" y="210" as="targetPoint"/>
                    </mxGeometry>
                </mxCell>
                <mxCell id="568" style="edgeStyle=elbowEdgeStyle;html=1;endArrow=diamondThin;endFill=1;" edge="1" parent="1" source="531" target="549">
                    <mxGeometry relative="1" as="geometry"/>
                </mxCell>
                <mxCell id="531" value="GetWorkerAction" style="swimlane;fontStyle=1;align=center;verticalAlign=middle;childLayout=stackLayout;horizontal=1;startSize=29;horizontalStack=0;resizeParent=1;resizeParentMax=0;resizeLast=0;collapsible=0;marginBottom=0;html=1;" vertex="1" parent="1">
                    <mxGeometry x="300" y="1110" width="140" height="54" as="geometry"/>
                </mxCell>
                <mxCell id="532" value="&amp;lt;&amp;lt;class&amp;gt;&amp;gt;" style="text;html=1;strokeColor=none;fillColor=none;align=center;verticalAlign=middle;spacingLeft=4;spacingRight=4;overflow=hidden;rotatable=0;points=[[0,0.5],[1,0.5]];portConstraint=eastwest;" vertex="1" parent="531">
                    <mxGeometry y="29" width="140" height="25" as="geometry"/>
                </mxCell>
                <mxCell id="565" style="edgeStyle=elbowEdgeStyle;html=1;endArrow=diamondThin;endFill=1;" edge="1" parent="1" source="535" target="549">
                    <mxGeometry relative="1" as="geometry"/>
                </mxCell>
                <mxCell id="535" value="CreateWorkerAction" style="swimlane;fontStyle=1;align=center;verticalAlign=middle;childLayout=stackLayout;horizontal=1;startSize=29;horizontalStack=0;resizeParent=1;resizeParentMax=0;resizeLast=0;collapsible=0;marginBottom=0;html=1;" vertex="1" parent="1">
                    <mxGeometry x="300" y="900" width="140" height="54" as="geometry"/>
                </mxCell>
                <mxCell id="536" value="&amp;lt;&amp;lt;class&amp;gt;&amp;gt;" style="text;html=1;strokeColor=none;fillColor=none;align=center;verticalAlign=middle;spacingLeft=4;spacingRight=4;overflow=hidden;rotatable=0;points=[[0,0.5],[1,0.5]];portConstraint=eastwest;" vertex="1" parent="535">
                    <mxGeometry y="29" width="140" height="25" as="geometry"/>
                </mxCell>
                <mxCell id="566" style="edgeStyle=elbowEdgeStyle;html=1;endArrow=diamondThin;endFill=1;" edge="1" parent="1" source="537" target="549">
                    <mxGeometry relative="1" as="geometry"/>
                </mxCell>
                <mxCell id="537" value="DeleteWorkerAction" style="swimlane;fontStyle=1;align=center;verticalAlign=middle;childLayout=stackLayout;horizontal=1;startSize=29;horizontalStack=0;resizeParent=1;resizeParentMax=0;resizeLast=0;collapsible=0;marginBottom=0;html=1;" vertex="1" parent="1">
                    <mxGeometry x="300" y="969.5" width="140" height="54" as="geometry"/>
                </mxCell>
                <mxCell id="538" value="&amp;lt;&amp;lt;class&amp;gt;&amp;gt;" style="text;html=1;strokeColor=none;fillColor=none;align=center;verticalAlign=middle;spacingLeft=4;spacingRight=4;overflow=hidden;rotatable=0;points=[[0,0.5],[1,0.5]];portConstraint=eastwest;" vertex="1" parent="537">
                    <mxGeometry y="29" width="140" height="25" as="geometry"/>
                </mxCell>
                <mxCell id="547" style="edgeStyle=elbowEdgeStyle;html=1;endArrow=diamondThin;endFill=1;" edge="1" parent="1" source="539">
                    <mxGeometry relative="1" as="geometry">
                        <mxPoint x="220" y="210" as="targetPoint"/>
                    </mxGeometry>
                </mxCell>
                <mxCell id="569" style="edgeStyle=elbowEdgeStyle;html=1;endArrow=diamondThin;endFill=1;" edge="1" parent="1" source="539" target="556">
                    <mxGeometry relative="1" as="geometry"/>
                </mxCell>
                <mxCell id="539" value="CreateProjectAction" style="swimlane;fontStyle=1;align=center;verticalAlign=middle;childLayout=stackLayout;horizontal=1;startSize=29;horizontalStack=0;resizeParent=1;resizeParentMax=0;resizeLast=0;collapsible=0;marginBottom=0;html=1;" vertex="1" parent="1">
                    <mxGeometry x="300" y="1210" width="140" height="54" as="geometry"/>
                </mxCell>
                <mxCell id="540" value="&amp;lt;&amp;lt;class&amp;gt;&amp;gt;" style="text;html=1;strokeColor=none;fillColor=none;align=center;verticalAlign=middle;spacingLeft=4;spacingRight=4;overflow=hidden;rotatable=0;points=[[0,0.5],[1,0.5]];portConstraint=eastwest;" vertex="1" parent="539">
                    <mxGeometry y="29" width="140" height="25" as="geometry"/>
                </mxCell>
                <mxCell id="548" style="edgeStyle=elbowEdgeStyle;html=1;endArrow=diamondThin;endFill=1;" edge="1" parent="1" source="541">
                    <mxGeometry relative="1" as="geometry">
                        <mxPoint x="220" y="210" as="targetPoint"/>
                    </mxGeometry>
                </mxCell>
                <mxCell id="570" style="edgeStyle=elbowEdgeStyle;html=1;endArrow=diamondThin;endFill=1;" edge="1" parent="1" source="541" target="556">
                    <mxGeometry relative="1" as="geometry"/>
                </mxCell>
                <mxCell id="541" value="GetAllProjectsAction" style="swimlane;fontStyle=1;align=center;verticalAlign=middle;childLayout=stackLayout;horizontal=1;startSize=29;horizontalStack=0;resizeParent=1;resizeParentMax=0;resizeLast=0;collapsible=0;marginBottom=0;html=1;" vertex="1" parent="1">
                    <mxGeometry x="300" y="1280" width="140" height="54" as="geometry"/>
                </mxCell>
                <mxCell id="542" value="&amp;lt;&amp;lt;class&amp;gt;&amp;gt;" style="text;html=1;strokeColor=none;fillColor=none;align=center;verticalAlign=middle;spacingLeft=4;spacingRight=4;overflow=hidden;rotatable=0;points=[[0,0.5],[1,0.5]];portConstraint=eastwest;" vertex="1" parent="541">
                    <mxGeometry y="29" width="140" height="25" as="geometry"/>
                </mxCell>
                <mxCell id="543" style="edgeStyle=elbowEdgeStyle;html=1;entryX=1;entryY=0.5;entryDx=0;entryDy=0;endArrow=diamondThin;endFill=1;" edge="1" parent="1" source="536" target="495">
                    <mxGeometry relative="1" as="geometry"/>
                </mxCell>
                <mxCell id="544" style="edgeStyle=elbowEdgeStyle;html=1;endArrow=diamondThin;endFill=1;" edge="1" parent="1" source="530">
                    <mxGeometry relative="1" as="geometry">
                        <mxPoint x="220" y="210" as="targetPoint"/>
                    </mxGeometry>
                </mxCell>
                <mxCell id="546" style="edgeStyle=elbowEdgeStyle;html=1;endArrow=diamondThin;endFill=1;" edge="1" parent="1" source="538">
                    <mxGeometry relative="1" as="geometry">
                        <mxPoint x="220" y="210" as="targetPoint"/>
                    </mxGeometry>
                </mxCell>
                <mxCell id="563" style="edgeStyle=elbowEdgeStyle;html=1;endArrow=classic;endFill=1;" edge="1" parent="1" source="549" target="415">
                    <mxGeometry relative="1" as="geometry">
                        <mxPoint x="760" y="-160" as="targetPoint"/>
                        <Array as="points">
                            <mxPoint x="760" y="490"/>
                        </Array>
                    </mxGeometry>
                </mxCell>
                <mxCell id="549" value="WorkerService" style="swimlane;fontStyle=1;align=center;verticalAlign=middle;childLayout=stackLayout;horizontal=1;startSize=29;horizontalStack=0;resizeParent=1;resizeParentMax=0;resizeLast=0;collapsible=0;marginBottom=0;html=1;" vertex="1" parent="1">
                    <mxGeometry x="510" y="837.5" width="240" height="154" as="geometry"/>
                </mxCell>
                <mxCell id="550" value="&amp;lt;&amp;lt;class&amp;gt;&amp;gt;" style="text;html=1;strokeColor=none;fillColor=none;align=center;verticalAlign=middle;spacingLeft=4;spacingRight=4;overflow=hidden;rotatable=0;points=[[0,0.5],[1,0.5]];portConstraint=eastwest;" vertex="1" parent="549">
                    <mxGeometry y="29" width="240" height="25" as="geometry"/>
                </mxCell>
                <mxCell id="551" value="+ create(worker: Worker): Worker" style="text;html=1;strokeColor=none;fillColor=none;align=left;verticalAlign=middle;spacingLeft=4;spacingRight=4;overflow=hidden;rotatable=0;points=[[0,0.5],[1,0.5]];portConstraint=eastwest;" vertex="1" parent="549">
                    <mxGeometry y="54" width="240" height="25" as="geometry"/>
                </mxCell>
                <mxCell id="553" value="+ getAll(id: Number, role: String): Worker[ ]" style="text;html=1;strokeColor=none;fillColor=none;align=left;verticalAlign=middle;spacingLeft=4;spacingRight=4;overflow=hidden;rotatable=0;points=[[0,0.5],[1,0.5]];portConstraint=eastwest;" vertex="1" parent="549">
                    <mxGeometry y="79" width="240" height="25" as="geometry"/>
                </mxCell>
                <mxCell id="554" value="+ deleteById(id: Number): void" style="text;html=1;strokeColor=none;fillColor=none;align=left;verticalAlign=middle;spacingLeft=4;spacingRight=4;overflow=hidden;rotatable=0;points=[[0,0.5],[1,0.5]];portConstraint=eastwest;" vertex="1" parent="549">
                    <mxGeometry y="104" width="240" height="25" as="geometry"/>
                </mxCell>
                <mxCell id="555" value="+ getById(id: Number): Worker" style="text;html=1;strokeColor=none;fillColor=none;align=left;verticalAlign=middle;spacingLeft=4;spacingRight=4;overflow=hidden;rotatable=0;points=[[0,0.5],[1,0.5]];portConstraint=eastwest;" vertex="1" parent="549">
                    <mxGeometry y="129" width="240" height="25" as="geometry"/>
                </mxCell>
                <mxCell id="564" style="edgeStyle=elbowEdgeStyle;html=1;endArrow=classic;endFill=1;" edge="1" parent="1" source="556" target="415">
                    <mxGeometry relative="1" as="geometry">
                        <mxPoint x="760" y="-190" as="targetPoint"/>
                        <Array as="points">
                            <mxPoint x="760" y="490"/>
                        </Array>
                    </mxGeometry>
                </mxCell>
                <mxCell id="556" value="ProjectService" style="swimlane;fontStyle=1;align=center;verticalAlign=middle;childLayout=stackLayout;horizontal=1;startSize=29;horizontalStack=0;resizeParent=1;resizeParentMax=0;resizeLast=0;collapsible=0;marginBottom=0;html=1;" vertex="1" parent="1">
                    <mxGeometry x="510" y="1185" width="240" height="104" as="geometry"/>
                </mxCell>
                <mxCell id="557" value="&amp;lt;&amp;lt;class&amp;gt;&amp;gt;" style="text;html=1;strokeColor=none;fillColor=none;align=center;verticalAlign=middle;spacingLeft=4;spacingRight=4;overflow=hidden;rotatable=0;points=[[0,0.5],[1,0.5]];portConstraint=eastwest;" vertex="1" parent="556">
                    <mxGeometry y="29" width="240" height="25" as="geometry"/>
                </mxCell>
                <mxCell id="558" value="+ create(project: Project): Project" style="text;html=1;strokeColor=none;fillColor=none;align=left;verticalAlign=middle;spacingLeft=4;spacingRight=4;overflow=hidden;rotatable=0;points=[[0,0.5],[1,0.5]];portConstraint=eastwest;" vertex="1" parent="556">
                    <mxGeometry y="54" width="240" height="25" as="geometry"/>
                </mxCell>
                <mxCell id="560" value="+ getAll(id: Number, role: String): Project[ ]" style="text;html=1;strokeColor=none;fillColor=none;align=left;verticalAlign=middle;spacingLeft=4;spacingRight=4;overflow=hidden;rotatable=0;points=[[0,0.5],[1,0.5]];portConstraint=eastwest;" vertex="1" parent="556">
                    <mxGeometry y="79" width="240" height="25" as="geometry"/>
                </mxCell>
                <mxCell id="606" style="edgeStyle=elbowEdgeStyle;html=1;endArrow=diamondThin;endFill=1;" edge="1" parent="1" source="573" target="549">
                    <mxGeometry relative="1" as="geometry">
                        <Array as="points">
                            <mxPoint x="770" y="840"/>
                            <mxPoint x="770" y="450"/>
                        </Array>
                    </mxGeometry>
                </mxCell>
                <mxCell id="617" style="edgeStyle=elbowEdgeStyle;html=1;endArrow=classic;endFill=1;" edge="1" parent="1" source="573" target="613">
                    <mxGeometry relative="1" as="geometry">
                        <Array as="points">
                            <mxPoint x="380" y="-464"/>
                        </Array>
                    </mxGeometry>
                </mxCell>
                <mxCell id="573" value="Worker" style="swimlane;fontStyle=1;align=center;verticalAlign=middle;childLayout=stackLayout;horizontal=1;startSize=29;horizontalStack=0;resizeParent=1;resizeParentMax=0;resizeLast=0;collapsible=0;marginBottom=0;html=1;" vertex="1" parent="1">
                    <mxGeometry x="310" y="-280" width="150" height="204" as="geometry"/>
                </mxCell>
                <mxCell id="574" value="&amp;lt;&amp;lt;class&amp;gt;&amp;gt;" style="text;html=1;strokeColor=none;fillColor=none;align=center;verticalAlign=middle;spacingLeft=4;spacingRight=4;overflow=hidden;rotatable=0;points=[[0,0.5],[1,0.5]];portConstraint=eastwest;" vertex="1" parent="573">
                    <mxGeometry y="29" width="150" height="25" as="geometry"/>
                </mxCell>
                <mxCell id="575" value="+ full_name: String" style="text;html=1;strokeColor=none;fillColor=none;align=left;verticalAlign=middle;spacingLeft=4;spacingRight=4;overflow=hidden;rotatable=0;points=[[0,0.5],[1,0.5]];portConstraint=eastwest;" vertex="1" parent="573">
                    <mxGeometry y="54" width="150" height="25" as="geometry"/>
                </mxCell>
                <mxCell id="576" value="+ realm: String" style="text;html=1;strokeColor=none;fillColor=none;align=left;verticalAlign=middle;spacingLeft=4;spacingRight=4;overflow=hidden;rotatable=0;points=[[0,0.5],[1,0.5]];portConstraint=eastwest;" vertex="1" parent="573">
                    <mxGeometry y="79" width="150" height="25" as="geometry"/>
                </mxCell>
                <mxCell id="577" value="+ money_account: String" style="text;html=1;strokeColor=none;fillColor=none;align=left;verticalAlign=middle;spacingLeft=4;spacingRight=4;overflow=hidden;rotatable=0;points=[[0,0.5],[1,0.5]];portConstraint=eastwest;" vertex="1" parent="573">
                    <mxGeometry y="104" width="150" height="25" as="geometry"/>
                </mxCell>
                <mxCell id="578" value="+ salary: Number" style="text;html=1;strokeColor=none;fillColor=none;align=left;verticalAlign=middle;spacingLeft=4;spacingRight=4;overflow=hidden;rotatable=0;points=[[0,0.5],[1,0.5]];portConstraint=eastwest;" vertex="1" parent="573">
                    <mxGeometry y="129" width="150" height="25" as="geometry"/>
                </mxCell>
                <mxCell id="579" value="+ owner_id: String" style="text;html=1;strokeColor=none;fillColor=none;align=left;verticalAlign=middle;spacingLeft=4;spacingRight=4;overflow=hidden;rotatable=0;points=[[0,0.5],[1,0.5]];portConstraint=eastwest;" vertex="1" parent="573">
                    <mxGeometry y="154" width="150" height="25" as="geometry"/>
                </mxCell>
                <mxCell id="582" value="+ costs: Cost [ ]&amp;nbsp;" style="text;html=1;strokeColor=none;fillColor=none;align=left;verticalAlign=middle;spacingLeft=4;spacingRight=4;overflow=hidden;rotatable=0;points=[[0,0.5],[1,0.5]];portConstraint=eastwest;" vertex="1" parent="573">
                    <mxGeometry y="179" width="150" height="25" as="geometry"/>
                </mxCell>
                <mxCell id="610" style="edgeStyle=elbowEdgeStyle;html=1;endArrow=diamondThin;endFill=1;" edge="1" parent="1" source="583" target="573">
                    <mxGeometry relative="1" as="geometry"/>
                </mxCell>
                <mxCell id="611" style="edgeStyle=elbowEdgeStyle;html=1;endArrow=diamondThin;endFill=1;" edge="1" parent="1" source="583" target="355">
                    <mxGeometry relative="1" as="geometry">
                        <Array as="points">
                            <mxPoint x="580" y="-200"/>
                        </Array>
                    </mxGeometry>
                </mxCell>
                <mxCell id="618" style="edgeStyle=elbowEdgeStyle;html=1;endArrow=classic;endFill=1;" edge="1" parent="1" source="583" target="613">
                    <mxGeometry relative="1" as="geometry"/>
                </mxCell>
                <mxCell id="583" value="Cost" style="swimlane;fontStyle=1;align=center;verticalAlign=middle;childLayout=stackLayout;horizontal=1;startSize=29;horizontalStack=0;resizeParent=1;resizeParentMax=0;resizeLast=0;collapsible=0;marginBottom=0;html=1;" vertex="1" parent="1">
                    <mxGeometry x="500" y="-370" width="150" height="154" as="geometry"/>
                </mxCell>
                <mxCell id="584" value="&amp;lt;&amp;lt;class&amp;gt;&amp;gt;" style="text;html=1;strokeColor=none;fillColor=none;align=center;verticalAlign=middle;spacingLeft=4;spacingRight=4;overflow=hidden;rotatable=0;points=[[0,0.5],[1,0.5]];portConstraint=eastwest;" vertex="1" parent="583">
                    <mxGeometry y="29" width="150" height="25" as="geometry"/>
                </mxCell>
                <mxCell id="585" value="+ records_id: String" style="text;html=1;strokeColor=none;fillColor=none;align=left;verticalAlign=middle;spacingLeft=4;spacingRight=4;overflow=hidden;rotatable=0;points=[[0,0.5],[1,0.5]];portConstraint=eastwest;" vertex="1" parent="583">
                    <mxGeometry y="54" width="150" height="25" as="geometry"/>
                </mxCell>
                <mxCell id="586" value="+ workers_id: String" style="text;html=1;strokeColor=none;fillColor=none;align=left;verticalAlign=middle;spacingLeft=4;spacingRight=4;overflow=hidden;rotatable=0;points=[[0,0.5],[1,0.5]];portConstraint=eastwest;" vertex="1" parent="583">
                    <mxGeometry y="79" width="150" height="25" as="geometry"/>
                </mxCell>
                <mxCell id="587" value="+ price: Number" style="text;html=1;strokeColor=none;fillColor=none;align=left;verticalAlign=middle;spacingLeft=4;spacingRight=4;overflow=hidden;rotatable=0;points=[[0,0.5],[1,0.5]];portConstraint=eastwest;" vertex="1" parent="583">
                    <mxGeometry y="104" width="150" height="25" as="geometry"/>
                </mxCell>
                <mxCell id="588" value="+ already_paid: Number" style="text;html=1;strokeColor=none;fillColor=none;align=left;verticalAlign=middle;spacingLeft=4;spacingRight=4;overflow=hidden;rotatable=0;points=[[0,0.5],[1,0.5]];portConstraint=eastwest;" vertex="1" parent="583">
                    <mxGeometry y="129" width="150" height="25" as="geometry"/>
                </mxCell>
                <mxCell id="612" style="edgeStyle=elbowEdgeStyle;html=1;endArrow=diamondThin;endFill=1;" edge="1" parent="1" source="591" target="355">
                    <mxGeometry relative="1" as="geometry"/>
                </mxCell>
                <mxCell id="619" style="edgeStyle=elbowEdgeStyle;html=1;endArrow=classic;endFill=1;" edge="1" parent="1" source="591" target="613">
                    <mxGeometry relative="1" as="geometry">
                        <Array as="points">
                            <mxPoint x="660" y="-410"/>
                        </Array>
                    </mxGeometry>
                </mxCell>
                <mxCell id="591" value="Income" style="swimlane;fontStyle=1;align=center;verticalAlign=middle;childLayout=stackLayout;horizontal=1;startSize=29;horizontalStack=0;resizeParent=1;resizeParentMax=0;resizeLast=0;collapsible=0;marginBottom=0;html=1;" vertex="1" parent="1">
                    <mxGeometry x="720" y="-425" width="150" height="104" as="geometry"/>
                </mxCell>
                <mxCell id="592" value="&amp;lt;&amp;lt;class&amp;gt;&amp;gt;" style="text;html=1;strokeColor=none;fillColor=none;align=center;verticalAlign=middle;spacingLeft=4;spacingRight=4;overflow=hidden;rotatable=0;points=[[0,0.5],[1,0.5]];portConstraint=eastwest;" vertex="1" parent="591">
                    <mxGeometry y="29" width="150" height="25" as="geometry"/>
                </mxCell>
                <mxCell id="593" value="+ records_id: String" style="text;html=1;strokeColor=none;fillColor=none;align=left;verticalAlign=middle;spacingLeft=4;spacingRight=4;overflow=hidden;rotatable=0;points=[[0,0.5],[1,0.5]];portConstraint=eastwest;" vertex="1" parent="591">
                    <mxGeometry y="54" width="150" height="25" as="geometry"/>
                </mxCell>
                <mxCell id="595" value="+ price: Number" style="text;html=1;strokeColor=none;fillColor=none;align=left;verticalAlign=middle;spacingLeft=4;spacingRight=4;overflow=hidden;rotatable=0;points=[[0,0.5],[1,0.5]];portConstraint=eastwest;" vertex="1" parent="591">
                    <mxGeometry y="79" width="150" height="25" as="geometry"/>
                </mxCell>
                <mxCell id="609" style="edgeStyle=elbowEdgeStyle;html=1;entryX=1;entryY=0.25;entryDx=0;entryDy=0;endArrow=diamondThin;endFill=1;" edge="1" parent="1" source="597" target="556">
                    <mxGeometry relative="1" as="geometry"/>
                </mxCell>
                <mxCell id="621" style="edgeStyle=elbowEdgeStyle;html=1;endArrow=classic;endFill=1;" edge="1" parent="1" source="597" target="613">
                    <mxGeometry relative="1" as="geometry">
                        <Array as="points">
                            <mxPoint x="700" y="-290"/>
                        </Array>
                    </mxGeometry>
                </mxCell>
                <mxCell id="597" value="Project" style="swimlane;fontStyle=1;align=center;verticalAlign=middle;childLayout=stackLayout;horizontal=1;startSize=29;horizontalStack=0;resizeParent=1;resizeParentMax=0;resizeLast=0;collapsible=0;marginBottom=0;html=1;" vertex="1" parent="1">
                    <mxGeometry x="810" y="-161" width="150" height="154" as="geometry"/>
                </mxCell>
                <mxCell id="598" value="&amp;lt;&amp;lt;class&amp;gt;&amp;gt;" style="text;html=1;strokeColor=none;fillColor=none;align=center;verticalAlign=middle;spacingLeft=4;spacingRight=4;overflow=hidden;rotatable=0;points=[[0,0.5],[1,0.5]];portConstraint=eastwest;" vertex="1" parent="597">
                    <mxGeometry y="29" width="150" height="25" as="geometry"/>
                </mxCell>
                <mxCell id="599" value="+ name: String" style="text;html=1;strokeColor=none;fillColor=none;align=left;verticalAlign=middle;spacingLeft=4;spacingRight=4;overflow=hidden;rotatable=0;points=[[0,0.5],[1,0.5]];portConstraint=eastwest;" vertex="1" parent="597">
                    <mxGeometry y="54" width="150" height="25" as="geometry"/>
                </mxCell>
                <mxCell id="600" value="+ category: String" style="text;html=1;strokeColor=none;fillColor=none;align=left;verticalAlign=middle;spacingLeft=4;spacingRight=4;overflow=hidden;rotatable=0;points=[[0,0.5],[1,0.5]];portConstraint=eastwest;" vertex="1" parent="597">
                    <mxGeometry y="79" width="150" height="25" as="geometry"/>
                </mxCell>
                <mxCell id="601" value="+ owner_id: String" style="text;html=1;strokeColor=none;fillColor=none;align=left;verticalAlign=middle;spacingLeft=4;spacingRight=4;overflow=hidden;rotatable=0;points=[[0,0.5],[1,0.5]];portConstraint=eastwest;" vertex="1" parent="597">
                    <mxGeometry y="104" width="150" height="25" as="geometry"/>
                </mxCell>
                <mxCell id="602" value="+ records: Record [ ]" style="text;html=1;strokeColor=none;fillColor=none;align=left;verticalAlign=middle;spacingLeft=4;spacingRight=4;overflow=hidden;rotatable=0;points=[[0,0.5],[1,0.5]];portConstraint=eastwest;" vertex="1" parent="597">
                    <mxGeometry y="129" width="150" height="25" as="geometry"/>
                </mxCell>
                <mxCell id="613" value="IEntity" style="swimlane;fontStyle=1;align=center;verticalAlign=middle;childLayout=stackLayout;horizontal=1;startSize=29;horizontalStack=0;resizeParent=1;resizeParentMax=0;resizeLast=0;collapsible=0;marginBottom=0;html=1;" vertex="1" parent="1">
                    <mxGeometry x="460" y="-504" width="150" height="79" as="geometry"/>
                </mxCell>
                <mxCell id="614" value="&amp;lt;&amp;lt;class&amp;gt;&amp;gt;" style="text;html=1;strokeColor=none;fillColor=none;align=center;verticalAlign=middle;spacingLeft=4;spacingRight=4;overflow=hidden;rotatable=0;points=[[0,0.5],[1,0.5]];portConstraint=eastwest;" vertex="1" parent="613">
                    <mxGeometry y="29" width="150" height="25" as="geometry"/>
                </mxCell>
                <mxCell id="615" value="+ id: String" style="text;html=1;strokeColor=none;fillColor=none;align=left;verticalAlign=middle;spacingLeft=4;spacingRight=4;overflow=hidden;rotatable=0;points=[[0,0.5],[1,0.5]];portConstraint=eastwest;" vertex="1" parent="613">
                    <mxGeometry y="54" width="150" height="25" as="geometry"/>
                </mxCell>
                <mxCell id="629" style="edgeStyle=elbowEdgeStyle;html=1;endArrow=diamondThin;endFill=1;" edge="1" parent="1" source="623" target="549">
                    <mxGeometry relative="1" as="geometry">
                        <Array as="points">
                            <mxPoint x="780" y="840"/>
                        </Array>
                    </mxGeometry>
                </mxCell>
                <mxCell id="633" style="edgeStyle=elbowEdgeStyle;html=1;endArrow=classic;endFill=1;" edge="1" parent="1" source="623" target="453">
                    <mxGeometry relative="1" as="geometry">
                        <Array as="points">
                            <mxPoint x="1100" y="300"/>
                        </Array>
                    </mxGeometry>
                </mxCell>
                <mxCell id="623" value="WorkerRepository" style="swimlane;fontStyle=1;align=center;verticalAlign=middle;childLayout=stackLayout;horizontal=1;startSize=29;horizontalStack=0;resizeParent=1;resizeParentMax=0;resizeLast=0;collapsible=0;marginBottom=0;html=1;" vertex="1" parent="1">
                    <mxGeometry x="840" y="796" width="220" height="54" as="geometry"/>
                </mxCell>
                <mxCell id="624" value="&amp;lt;&amp;lt;class&amp;gt;&amp;gt;" style="text;html=1;strokeColor=none;fillColor=none;align=center;verticalAlign=middle;spacingLeft=4;spacingRight=4;overflow=hidden;rotatable=0;points=[[0,0.5],[1,0.5]];portConstraint=eastwest;" vertex="1" parent="623">
                    <mxGeometry y="29" width="220" height="25" as="geometry"/>
                </mxCell>
                <mxCell id="628" style="edgeStyle=elbowEdgeStyle;html=1;endArrow=diamondThin;endFill=1;" edge="1" parent="1" source="625" target="556">
                    <mxGeometry relative="1" as="geometry"/>
                </mxCell>
                <mxCell id="625" value="ProjectRepository" style="swimlane;fontStyle=1;align=center;verticalAlign=middle;childLayout=stackLayout;horizontal=1;startSize=29;horizontalStack=0;resizeParent=1;resizeParentMax=0;resizeLast=0;collapsible=0;marginBottom=0;html=1;" vertex="1" parent="1">
                    <mxGeometry x="810" y="1130" width="220" height="54" as="geometry"/>
                </mxCell>
                <mxCell id="626" value="&amp;lt;&amp;lt;class&amp;gt;&amp;gt;" style="text;html=1;strokeColor=none;fillColor=none;align=center;verticalAlign=middle;spacingLeft=4;spacingRight=4;overflow=hidden;rotatable=0;points=[[0,0.5],[1,0.5]];portConstraint=eastwest;" vertex="1" parent="625">
                    <mxGeometry y="29" width="220" height="25" as="geometry"/>
                </mxCell>
                <mxCell id="634" style="edgeStyle=elbowEdgeStyle;html=1;endArrow=classic;endFill=1;" edge="1" parent="1" source="626" target="453">
                    <mxGeometry relative="1" as="geometry">
                        <Array as="points">
                            <mxPoint x="1100" y="320"/>
                        </Array>
                    </mxGeometry>
                </mxCell>
            </root>
        </mxGraphModel>
    </diagram>
</mxfile>